<?xml version="1.0" encoding="utf-8"?>
<!-- Generator: Adobe Illustrator 29.1.0, SVG Export Plug-In . SVG Version: 9.03 Build 55587)  -->
<svg version="1.0" xmlns="http://www.w3.org/2000/svg" xmlns:xlink="http://www.w3.org/1999/xlink" x="0px" y="0px"
	 viewBox="0 0 48 48" style="enable-background:new 0 0 48 48;" xml:space="preserve">
<style type="text/css">
	.st0{display:none;}
</style>
<g id="Layer_9">
</g>
<g id="Layer_8">
	<g>
		<path d="M24,4.4l17,16.1v5V39v2c0,0.6-0.4,1-1,1H8c-0.6,0-1-0.4-1-1v-2V25.4v-5L24,4.4 M24,3L6,20v5.4V39v2c0,1.1,0.9,2,2,2h32
			c1.1,0,2-0.9,2-2v-2V25.4V20L24,3L24,3z"/>
	</g>
</g>
<g id="Layer_1" class="st0">
</g>
<g id="Layer_3">
	<path d="M35,25h-6c-0.6,0-1,0.4-1,1v6c0,0.6,0.4,1,1,1h6c0.6,0,1-0.4,1-1v-6C36,25.4,35.6,25,35,25z"/>
</g>
<g id="Layer_4" class="st0">
</g>
<g id="Layer_7" class="st0">
</g>
<g id="Layer_5">
	<g>
		<path d="M23,25H13c-0.6,0-1,0.4-1,1v17h12V26C24,25.4,23.6,25,23,25z"/>
	</g>
	<path d="M44.5,19.5l-19.2-17C24.9,2.2,24.5,2,24,2s-0.9,0.2-1.3,0.5l-19.2,17c-0.4,0.4-0.4,1-0.1,1.4l1.6,1.7
		c0.4,0.4,1,0.4,1.4,0.1L24,7.4l17.5,15.3c0.4,0.4,1,0.3,1.4-0.1l1.6-1.7C44.9,20.5,44.9,19.9,44.5,19.5z"/>
</g>
</svg>
