<svg xmlns="http://www.w3.org/2000/svg" fill="currentColor" viewBox="0 0 32 32"><path d="M12.2,3.4l-0.9,0.1c0,0-4,0.4-6.9,2.8h0l0,0C3.7,6.9,3.5,7.7,3,8.7s-0.9,2.4-1.3,4c-0.8,3-1.5,6.7-1.5,10.1v0.3l0.1,0.3	c1,1.8,2.9,3,4.6,3.8s3.2,1.2,4.2,1.3l0.7,0l0.4-0.6l1.2-2.2c1.3,0.3,2.8,0.5,4.6,0.5s3.3-0.2,4.6-0.5l1.2,2.2l0.4,0.6l0.7,0	c1,0,2.5-0.5,4.2-1.3s3.6-2,4.6-3.8l0.1-0.3v-0.3c0-3.4-0.7-7.1-1.5-10.1c-0.4-1.5-0.9-2.9-1.3-4s-0.7-1.8-1.4-2.4l0,0h0	c-2.9-2.3-6.9-2.8-6.9-2.8l-0.9-0.1l-0.3,0.8c0,0-0.3,0.8-0.5,1.8c-1.3-0.2-2.3-0.2-2.9-0.2c-0.6,0-1.7,0-2.9,0.2	c-0.2-0.9-0.5-1.8-0.5-1.8L12.2,3.4z M10.7,6c0,0.2,0.1,0.3,0.1,0.4c-1.5,0.4-3,0.9-4.5,1.8l1.2,1.9c2.9-1.8,7.2-2.1,8.5-2.1	c1.3,0,5.5,0.3,8.5,2.1l1.2-1.9c-1.4-0.9-3-1.4-4.5-1.8c0-0.1,0.1-0.3,0.1-0.4c1.1,0.2,3.1,0.7,4.7,2c0,0,0.4,0.7,0.8,1.6	c0.4,1,0.8,2.2,1.2,3.7c0.8,2.8,1.4,6.1,1.4,9.1c-0.7,1.1-2,2.1-3.4,2.7c-1.2,0.6-2.2,0.8-2.8,0.9l-0.6-1c0.3-0.1,0.7-0.3,1-0.4	c1.7-0.8,2.7-1.6,2.7-1.6L25,21.4c0,0-0.6,0.6-2.1,1.2c-1.5,0.7-3.8,1.3-6.8,1.3s-5.3-0.7-6.8-1.3C7.7,22,7,21.4,7,21.4l-1.5,1.7	c0,0,0.9,0.8,2.7,1.6c0.3,0.1,0.6,0.3,1,0.4l-0.6,1c-0.6-0.1-1.5-0.3-2.8-0.9c-1.4-0.7-2.7-1.6-3.4-2.7c0-3,0.7-6.3,1.4-9.1	c0.4-1.4,0.8-2.7,1.2-3.7C5.5,8.7,5.9,8,5.9,8C7.6,6.7,9.6,6.2,10.7,6z M12,13.7c-0.9,0-1.7,0.5-2.1,1.1c-0.5,0.6-0.7,1.4-0.7,2.3	c0,0.9,0.2,1.6,0.7,2.3c0.5,0.6,1.2,1.1,2.1,1.1c0.9,0,1.7-0.5,2.1-1.1s0.7-1.4,0.7-2.3c0-0.9-0.2-1.6-0.7-2.3S12.9,13.7,12,13.7z	 M20,13.7c-0.9,0-1.7,0.5-2.1,1.1s-0.7,1.4-0.7,2.3c0,0.9,0.2,1.6,0.7,2.3s1.2,1.1,2.1,1.1c0.9,0,1.7-0.5,2.1-1.1	c0.5-0.6,0.7-1.4,0.7-2.3c0-0.9-0.2-1.6-0.7-2.3C21.6,14.2,20.8,13.7,20,13.7z M12,16c0.1,0,0.1,0,0.3,0.2c0.1,0.2,0.3,0.5,0.3,0.9	c0,0.4-0.1,0.7-0.3,0.9c-0.1,0.2-0.2,0.2-0.3,0.2c-0.1,0-0.1,0-0.3-0.2c-0.1-0.2-0.3-0.5-0.3-0.9c0-0.4,0.1-0.7,0.3-0.9	C11.9,16,12,16,12,16z M20,16c0.1,0,0.1,0,0.3,0.2s0.3,0.5,0.3,0.9c0,0.4-0.1,0.7-0.3,0.9S20,18.3,20,18.3c-0.1,0-0.1,0-0.3-0.2	s-0.3-0.5-0.3-0.9c0-0.4,0.1-0.7,0.3-0.9S19.9,16,20,16z"/></svg>