<?xml version="1.0" encoding="utf-8"?>
<!-- Generator: Adobe Illustrator 29.1.0, SVG Export Plug-In . SVG Version: 9.03 Build 55587)  -->
<svg version="1.0" id="Layer_1" xmlns="http://www.w3.org/2000/svg" xmlns:xlink="http://www.w3.org/1999/xlink" x="0px" y="0px"
	 viewBox="0 0 48 48" style="enable-background:new 0 0 48 48;" xml:space="preserve">
<path d="M37,6H11c-2.8,0-5,2.2-5,5v26c0,2.8,2.2,5,5,5h26c2.8,0,5-2.2,5-5V11C42,8.2,39.8,6,37,6z M17,36h-5V19h5V36z M14.5,17
	L14.5,17C13,17,12,15.9,12,14.5c0-1.4,1-2.5,2.5-2.5c1.5,0,2.5,1.1,2.5,2.5C17,15.9,16,17,14.5,17z M31,36v-9.1
	c0-2.2-1.2-3.7-3.2-3.7c-1.5,0-2.3,1-2.7,2C25,25.5,25,26.5,25,27v9h-5V19h5v2.6c0.7-1.1,1.8-2.6,4.7-2.6c3.6,0,6.3,2.2,6.3,7.3
	l0,9.7H31z"/>
</svg>
